<?xml version="1.0" encoding="UTF-8"?>
<svg id="Layer_2" data-name="Layer 2" xmlns="http://www.w3.org/2000/svg" xmlns:xlink="http://www.w3.org/1999/xlink" version="1.1" viewBox="0 0 216.5017 144.1114">
  <defs>
    <style>
      .cls-1 {
        fill: #b6ced6;
      }

      .cls-1, .cls-2, .cls-3, .cls-4, .cls-5, .cls-6, .cls-7, .cls-8, .cls-9, .cls-10, .cls-11, .cls-12, .cls-13, .cls-14, .cls-15, .cls-16, .cls-17, .cls-18, .cls-19, .cls-20, .cls-21, .cls-22, .cls-23, .cls-24, .cls-25, .cls-26, .cls-27, .cls-28, .cls-29 {
        stroke-width: 0px;
      }

      .cls-2 {
        fill: #4d4d4d;
      }

      .cls-30 {
        stroke: #657175;
        stroke-width: .3363px;
      }

      .cls-30, .cls-31, .cls-32, .cls-33, .cls-34, .cls-35, .cls-36 {
        stroke-miterlimit: 10;
      }

      .cls-30, .cls-31, .cls-32, .cls-34 {
        fill: none;
      }

      .cls-3 {
        fill: #7cc27a;
      }

      .cls-4 {
        fill: url(#linear-gradient);
      }

      .cls-5 {
        fill: #7a9199;
      }

      .cls-6 {
        fill: #a8eaef;
      }

      .cls-31, .cls-32 {
        stroke: #000;
      }

      .cls-31, .cls-32, .cls-33, .cls-37, .cls-35 {
        stroke-width: .3981px;
      }

      .cls-31, .cls-34 {
        stroke-linecap: round;
      }

      .cls-7 {
        fill: #51727a;
      }

      .cls-33 {
        fill: url(#linear-gradient-4);
      }

      .cls-33, .cls-35 {
        stroke: #869ea8;
      }

      .cls-8 {
        fill: #6e8d96;
      }

      .cls-9 {
        fill: #a0bac4;
      }

      .cls-10 {
        fill: #fc98b6;
      }

      .cls-11 {
        fill: #509950;
      }

      .cls-12 {
        fill: #a88f66;
      }

      .cls-37 {
        fill: url(#radial-gradient);
        stroke: #6e8d96;
        stroke-linejoin: round;
      }

      .cls-13 {
        fill: #dcfffc;
      }

      .cls-34 {
        stroke: #665956;
        stroke-width: .5605px;
      }

      .cls-14 {
        fill: #663d5f;
      }

      .cls-15 {
        fill: #94e892;
      }

      .cls-16 {
        fill: #7697a1;
      }

      .cls-17 {
        fill: #88d384;
      }

      .cls-35 {
        fill: url(#radial-gradient-2);
      }

      .cls-18 {
        fill: #d3e9ed;
      }

      .cls-19 {
        fill: #869ea8;
      }

      .cls-20 {
        fill: #af948c;
      }

      .cls-21 {
        fill: #8f5686;
      }

      .cls-22 {
        fill: url(#linear-gradient-2);
      }

      .cls-23 {
        fill: url(#linear-gradient-3);
      }

      .cls-24 {
        fill: url(#linear-gradient-5);
      }

      .cls-25 {
        fill: #81a5b0;
      }

      .cls-26 {
        fill: #85706a;
      }

      .cls-27 {
        fill: #fff;
      }

      .cls-28 {
        fill: #bdf8ff;
      }

      .cls-36 {
        stroke: #c28f54;
        stroke-width: 1.1211px;
      }

      .cls-36, .cls-29 {
        fill: #ffca6e;
      }
    </style>
    <radialGradient id="radial-gradient" cx="93.1192" cy="37.5174" fx="93.1192" fy="37.5174" r="65.0179" gradientUnits="userSpaceOnUse">
      <stop offset="0" stop-color="#bfd6dd"/>
      <stop offset="1" stop-color="#92adb8"/>
    </radialGradient>
    <linearGradient id="linear-gradient" x1="111.9737" y1="-11.4485" x2="106.3815" y2="37.0166" gradientUnits="userSpaceOnUse">
      <stop offset="0" stop-color="#db97d3"/>
      <stop offset="1" stop-color="#8f5685"/>
    </linearGradient>
    <linearGradient id="linear-gradient-2" x1="151.8026" y1="87.5166" x2="134.6649" y2="96.9147" gradientUnits="userSpaceOnUse">
      <stop offset="0" stop-color="#bfd6dd"/>
      <stop offset="1" stop-color="#92adb8"/>
    </linearGradient>
    <linearGradient id="linear-gradient-3" x1="52.8123" y1="86.9573" x2="68.2532" y2="95.5356" xlink:href="#linear-gradient-2"/>
    <radialGradient id="radial-gradient-2" cx="177.8712" cy="41.1395" fx="177.8712" fy="41.1395" r="33.1737" gradientUnits="userSpaceOnUse">
      <stop offset="0" stop-color="#bfd6dd"/>
      <stop offset=".3803" stop-color="#aec6cf"/>
      <stop offset="1" stop-color="#92adb8"/>
    </radialGradient>
    <linearGradient id="linear-gradient-4" x1="124.8759" y1="17.1237" x2="156.9374" y2="77.0216" gradientUnits="userSpaceOnUse">
      <stop offset="0" stop-color="#bfd6dd"/>
      <stop offset=".3803" stop-color="#aec6cf"/>
      <stop offset="1" stop-color="#92adb8"/>
    </linearGradient>
    <linearGradient id="linear-gradient-5" x1="174.78" y1="16.7105" x2="169.1878" y2="31.6229" xlink:href="#linear-gradient"/>
  </defs>
  <line class="cls-30" x1="94.689" y1="100.218" x2="101.339" y2="132.7292"/>
  <line class="cls-30" x1="70.01" y1="83.8146" x2="84.4923" y2="131.547"/>
  <polyline class="cls-30" points="128.0869 89.2824 125.2017 115.2753 121.2891 129.6259"/>
  <line class="cls-30" x1="125.2791" y1="115.2914" x2="126.7605" y2="129.9318"/>
  <line class="cls-34" x1="86.5547" y1="137.3667" x2="78.7901" y2="137.3667"/>
  <path class="cls-16" d="M54.0054,75.8837s-4.0464,3.5968-10.0412,2.8475c0,0,0,11.6897,7.3435,14.3873l11.9894-9.7414-9.2918-7.4934Z"/>
  <path class="cls-37" d="M155.7283,15.899S141.4909,1.2119,113.0159,1.0621c-28.4749-.1499-54.3154,11.6527-69.239,37.1673-4.6459,7.943-10.1225,27.939-18.7335,29.3741-3.5968.5995-6.5942.2248-11.8396-5.2454,0,0,3.2971,7.6433,11.39,6.4443,5.2414-.7765,13.9377-6.8939,16.4855-13.9377,0,0-2.9974,35.6686,43.9113,45.7097,15.2135,3.2566,50.3557,9.8913,65.7921-25.4776l15.2865-25.59-10.3409-33.6079Z"/>
  <path class="cls-19" d="M51.4202,27.289s39.5652,23.6791,59.1229,56.0506l17.7594-21.581s-5.8449-10.7905-6.7441-11.4649-41.5884-22.2554-41.5884-22.2554l-19.258-10.0412s-9.067,7.7182-9.2918,9.2918Z"/>
  <path class="cls-16" d="M156.291,83.4719s3.5026,3.0022,7.0051,3.7527c0,0-2.8869,7.1284-9.1414,8.2542,0,0-6.3699-7.2535-6.3699-7.7539s-2.1266-5.2538-1.8764-6.1295,4.7535-2.752,4.7535-2.752l5.6291,4.6284Z"/>
  <path class="cls-16" d="M53.8006,85.4153c1.2364-1.7984.3453-.2686,2.6976-4.9456.894-1.7774,10.7905-7.1937,19.3889,6.6219,9.1609,10.463,24.1317,11.1512,29.6179,10.9126,14.3808-.6253,24.5034-6.2945,24.5034-6.2945-2.9224-6.9689,6.2945-13.4881,10.5657-14.6121,0,0-6.2945-6.5193-7.4185-8.7673-1.124-2.248-3.8216-4.7208-3.8216-4.7208l-5.3952-5.8449,6.9689-5.1704s8.5425.8992,10.3409,1.124,13.6502,22.735,13.6502,22.735l-23.5415,17.2798-19.1082,7.4185-24.0538-1.5736-13.7129-4.2712-17.085-5.7325-3.5968-4.1588Z"/>
  <path class="cls-16" d="M57.7463,88.2416c6.3771,4.9913,15.0727,9.4984,27.2556,12.1062,14.078,3.0135,45.1521,8.892,61.9541-18.2685-22.9243,20.7428-53.9017,18.9947-89.2097,6.1623Z"/>
  <path class="cls-7" d="M16.3511,65.3554s-1.5588-.0322-2.3979-10.9404c-.2997-3.8966-4.9456-11.9894-10.7905-9.8913-5.8449,2.0982-1.7984,6.7441-1.7984,6.7441,0,0-1.6485-4.1963,1.6485-5.5451,3.2971-1.3488,8.1215,1.9933,5.695,7.4934-2.248,5.0955-1.7984,12.8886,7.6433,12.1393Z"/>
  <path class="cls-4" d="M52.3194,25.5655s33.2707,20.457,58.8981,54.8517c0,0,24.953-33.0459,41.1388-43.8364l10.3409-7.6433-6.9689-13.0385S136.8449-1.8604,108.2951.3876c-28.5499,2.248-48.1076,15.7361-55.9757,25.1778Z"/>
  <path class="cls-29" d="M161.6063,26.8966l1.0909,2.0409-10.3409,7.6433c-16.1857,10.7905-41.1388,43.8364-41.1388,43.8364-25.6274-34.3947-58.8981-54.8517-58.8981-54.8517.606-.7272,1.2813-1.4784,2.0247-2.2466,0,0,35.2924,22.4787,56.8734,52.6022,0,0,23.4457-34.2054,50.3888-49.0246Z"/>
  <path class="cls-32" d="M109.1943.3876s67.8953-7.2765,48.782,68.5646c-9.4417,27.201-23.829,64.2934-23.829,64.2934"/>
  <path class="cls-31" d="M110.8195,110.3462s-.9569,1.2837-.0375,1.7235c.8617.4121.8267.8408.2273,1.3653"/>
  <path class="cls-22" d="M147.3811,82.6912s6.3883,6.1425,9.091,14.7421c0,0-10.3195,13.3908-25.7987,9.091,0,0,5.1597-8.231-.1229-19.0419,0,0,3.1941-7.4939,11.1794-7.7396l5.6511,2.9484Z"/>
  <path class="cls-18" d="M157.0571,98.438s-2.054-5.9709-4.4423-5.3977c-2.3884.5732-.4777,7.8338-.4777,7.8338,0,0,3.7736-.4299,4.92-2.4361Z"/>
  <path class="cls-18" d="M152.6193,99.5034s-.9828-3.6855-3.1941-2.9484-1.5649,7.2416-1.5649,7.2416c.3595.5634,4.4713-.8864,5.2505-2.6961l-.4914-1.5971Z"/>
  <path class="cls-32" d="M109.1944.1628c2.994,47.1309,3.5215,91.8934.5619,133.3076"/>
  <path class="cls-32" d="M79.7866,127.8814s-3.8915-9.693-16.0308-39.7041c-1.6942-4.1884-7.2838-20.7968-8.2893-24.5078C38.5442,1.2102,108.9695.3876,108.9695.3876"/>
  <path class="cls-23" d="M57.7758,80.7795s4.0032-2.8594,10.4083.4575c6.4051,3.3169,4.5751,9.6077,4.5751,9.6077,0,0-3.8888,8.3495-5.3757,13.954,0,0-12.9246,3.7744-20.8166-12.8102,0,0,8.1208-3.0882,11.209-11.209Z"/>
  <path class="cls-18" d="M67.7226,98.3956c-1.9444-.2288-5.3757,6.5195-5.3757,6.5195.5098.7247,3.8707,1.2749,5.2614-.2288,0,0,2.0588-6.062.1144-6.2907Z"/>
  <path class="cls-18" d="M62.4593,105.3647s2.9688-6.7847.1144-5.8332c-2.4019.8006-4.8038,4.5751-4.8038,4.5751-.1964.2473,2.3147,1.6561,4.6894,1.2582Z"/>
  <path class="cls-35" d="M161.5732,17.9971s9.1419-1.1989,15.5863,2.5478c6.4443,3.7467,6.2736,11.7034,8.2427,14.6871,4.9456,7.4934,3.3183,19.4123,1.7984,32.5214-1.1989,10.3409,9.8117,15.8925,15.1367,14.2375,5.5451-1.7235,9.0737-5.2504,8.8422-12.8886-.1499-4.9456-2.8475-7.4934-4.6459-7.7931-1.7984-.2997-7.2367,2.499-5.5451,1.0491,1.0491-.8992,2.1355-.8967,2.3979-5.0955.1499-2.3979-1.3488-3.7467-1.3488-4.6459s3.2971,1.6485,5.2454,3.5968c0,0,8.4675,1.2739,8.9921,13.0385.6692,15.0086-10.9404,20.3821-19.7826,18.4338-7.8448-1.7285-14.3232-10.1956-20.148-19.9035-4.7415-2.1658-10.0609-3.1771-15.6209-7.5016-7.4894-15.6199-10.6902-26.3975.8497-42.2836Z"/>
  <path class="cls-8" d="M200.9884,62.3581c1.124-.5245,2.5478-1.6485,2.6976-5.0206.1067-2.4002-1.6484-3.8217-1.6484-4.7209.5343,2.2171,1.1318,3.0822.8991,4.9457-.2105,1.685-.8993,3.6717-1.9484,4.7957Z"/>
  <path class="cls-8" d="M186.4139,54.3781c.5972,1.9764-.039,4.1847-1.7026,4.6873s-3.7245-.8906-4.3217-2.8671c-.5972-1.9764.8394-4.1476,2.5029-4.6502,1.6636-.5026,2.9242.8535,3.5213,2.83Z"/>
  <path class="cls-27" d="M186.8119,53.9801c.5972,1.9764-.039,4.1847-1.7026,4.6873s-3.7245-.8906-4.3217-2.8671.8394-4.1476,2.5029-4.6502c1.6636-.5026,2.9242.8535,3.5213,2.83Z"/>
  <path class="cls-1" d="M180.7877,55.8003c-.5972-1.9764.8394-4.1476,2.5029-4.6502,1.6636-.5026,2.9242.8535,3.5213,2.83-2.2624-.6225-4.3453-.377-6.0243,1.8202Z"/>
  <ellipse class="cls-2" cx="185.5404" cy="56.5124" rx="1.0956" ry=".9796" transform="translate(105.4139 233.1438) rotate(-82.539)"/>
  <path class="cls-8" d="M202.2624,53.2911c1.6243,1.9076,1.8221,4.7035,1.8735,7.1186-.6053-2.3853-.716-4.9237-1.8735-7.1186h0Z"/>
  <path class="cls-8" d="M187.6099,73.0527c-1.8987.0694-3.4378,1.463-4.8508,2.5886.1295-.2031.2794-.3904.4202-.5879,1.0534-1.2309,2.7305-2.4644,4.4307-2.0007h0Z"/>
  <path class="cls-8" d="M185.1249,78.527c.9595-1.3665,2.8416-2.1746,4.4735-1.7067-1.6792.1163-3.1059.7475-4.4735,1.7067h0Z"/>
  <path class="cls-8" d="M189.8233,76.8952c-1.0091.4391-1.7762.9473-2.6227,1.6486.3686-1.0279,1.5301-1.7786,2.6227-1.6486h0Z"/>
  <path class="cls-8" d="M196.1177,81.5412c.0612.8824-.1389,1.717-.5994,2.4728-.0634-.8828.141-1.7162.5994-2.4728h0Z"/>
  <path class="cls-8" d="M203.3114,81.5412c1.0511,1.0724,1.169,2.8354.6744,4.1963-.0614-1.4655-.1098-2.8246-.6744-4.1963h0Z"/>
  <path class="cls-8" d="M203.761,81.5412c1.0184.6353,1.7666,1.7326,1.9483,2.9223-.6825-.9772-1.315-1.9015-1.9483-2.9223h0Z"/>
  <path class="cls-8" d="M188.3246,43.3248l-6.5193-6.5193s-12.5889,6.7441-22.705-3.8216c0,0-2.6976,6.0697.4496,12.5889,3.1472,6.5193,3.6763,9.6281,4.3507,17.0466l-5.207-3.6625-7.4614-10.9112,2.4728-16.4105,7.9012-4.7386s9.6333.9169,10.3077.6921,11.6897,2.6976,11.6897,2.6976c0,0,4.0464,9.8913,4.7208,13.0385Z"/>
  <path class="cls-9" d="M152.4312,29.9866s1.4987,2.248,4.0464,2.248,3.5968-2.248,3.5968-2.248l-2.5478-2.5478-4.6875.1499-.408,2.3979Z"/>
  <path class="cls-14" d="M100.2772,40.4773s3.8966,9.1419,6.5942,11.39c2.6977,2.248,3.7467,2.5477,3.7467,2.5477,0,0,2.0981,0,4.0464,1.7984s4.7958,3.447,6.5942,3.8966l1.7984.4496s.078.01.2068.0304l2.2304-2.7262-25.2171-17.3866Z"/>
  <path class="cls-12" d="M123.2639,60.5901c.5982.0951,2.3503.4285,3.0903,1.1685l2.3979-1.6486-3.2577-2.2461-2.2304,2.7262Z"/>
  <path class="cls-33" d="M161.5732,17.9971s5.25,1.5659-1.6439,12.0567c-6.8939,10.4908,1.4941,15.0694,2.9927,35.7512l2.248,16.7852s-3.447,1.1989-4.3462.7493-1.6485-.8992-2.8475-.4496c-1.1989.4496-7.4934-.1499-12.439-3.2971-4.9456-3.1472-10.6406-9.8913-12.439-13.0385-1.7984-3.1472-4.9456-6.1446-8.2427-7.1937-3.2971-1.0491-7.6433-3.2971-9.2918-5.0955s-3.447-2.5478-5.5451-2.6976c-2.0982-.1499-9.4417-8.5425-9.5916-11.9894,0,0,7.9747-18.5645,30.7229-24.5784,13.0385-3.447,30.4232,2.9974,30.4232,2.9974"/>
  <path class="cls-18" d="M156.8796,17.7339s-19.6327-7.6433-33.4206,3.2971c0,0,12.514-6.7441,33.4206-3.2971Z"/>
  <path class="cls-25" d="M158.3135,20.8446s-16.5229-7.6433-37.8791,5.6201c0,0,6.5193-2.9224,9.2169-2.4728,2.6976.4496,11.2401,7.8681,16.1857,9.2169,4.9456,1.3488,13.6005-11.0153,12.4765-12.3641Z"/>
  <path class="cls-25" d="M117.2122,53.366s9.7414-14.3124,11.0902-10.7156-3.447,15.6612-3.447,15.6612c0,0-6.9689-2.4728-7.6433-4.9456Z"/>
  <path class="cls-25" d="M110.9178,50.5185s7.2684-9.9573,5.0206-8.7673c-3.8216,2.0232-7.7182,6.819-7.7182,6.819,0,0,1.9483,1.6485,2.6976,1.9483Z"/>
  <path class="cls-16" d="M140.1421,72.699s6.3694-13.638,6.819-10.9404c.4496,2.6976-.8243,16.1858-.8243,16.1858-2.5955-1.1246-4.6484-2.816-5.9947-5.2454Z"/>
  <path class="cls-16" d="M161.2734,83.3396s-.4385-18.9279-1.3488-15.2865c-.5995,2.3979-1.3488,14.5372-1.3488,14.5372l2.6976.7493Z"/>
  <path class="cls-24" d="M187.9499,41.6763s-4.496-6.1446-6.1446-6.4443c0,0-13.3383,3.7467-19.7826-1.7984l-7.7931-7.6433s-3.4851-5.2777-1.4237-10.5657c0,0,17.7834-.6566,26.152,6.3694,3.5968,3.2971,5.2516,9.764,5.8986,11.3455,1.1184,2.7339,3.0935,6.4888,3.0935,8.7368Z"/>
  <path class="cls-29" d="M187.0193,38.3403s.9306,2.4421.9306,3.336c0,0-4.496-6.1446-6.1446-6.4443,0,0-13.303,4.4064-19.7473-1.1387,0,0-6.1817-4.5012-7.8284-8.303-1.0423-2.4065-3.3609-6.0855-1.4237-10.5657,0,0,.8689-.0321,2.313-.0062,0,0-1.736,3.5194,1.8403,9.5188,1.2745,2.1379,3.0592,4.5401,6.1663,7.3116,3.974,3.5449,15.4126,2.6786,19.1214,1.0771l4.7725,5.2144Z"/>
  <circle class="cls-36" cx="156.4027" cy="27.5887" r="3.5635"/>
  <path class="cls-5" d="M177.271,69.1722c-1.5309-1.5888-2.736-3.7762-2.627-6.0338.6554,2.1005,1.7486,4.0353,2.627,6.0338h0Z"/>
  <polygon class="cls-11" points="80.0243 128.2802 79.1118 128.4106 78.2644 116.4824 79.3073 116.678 80.0243 128.2802"/>
  <path class="cls-3" d="M78.9168,117.0659l.6513,11.4751,29.0068-.3505c-3.4273-3.5675-7.7657-7.2025-12.3441-11.6262l-18.5119-.2254,1.198.727"/>
  <path class="cls-6" d="M99.1589,128.2784s.1865-7.1008-2.3112-7.2665-2.192,7.2483-2.192,7.2483l4.5031.0182Z"/>
  <path class="cls-6" d="M92.7895,128.4499s.1865-7.1008-2.3112-7.2665c-2.4977-.1657-2.192,7.2483-2.192,7.2483l4.5031.0182Z"/>
  <path class="cls-6" d="M86.4181,128.2632s.1865-7.1008-2.3112-7.2665-2.192,7.2483-2.192,7.2483l4.5031.0182Z"/>
  <path class="cls-13" d="M98.8514,124.1904l-3.6025-1.6116c-.0591.1712-.104.3632-.1525.5501l3.8502,1.6617c-.0287-.2004-.0586-.4012-.0952-.6002Z"/>
  <path class="cls-13" d="M99.0408,125.5852l-4.0776-1.8303c-.1259.6539-.1993,1.3424-.2455,1.985l4.4343,1.6718c-.0126-.486-.0411-1.1274-.1111-1.8266Z"/>
  <path class="cls-28" d="M98.9467,124.7906l-3.8502-1.6617c-.0517.2006-.0925.4136-.1333.626l4.0776,1.8303c-.0257-.2607-.0558-.5258-.0942-.7946Z"/>
  <path class="cls-13" d="M92.4131,124.0215l-3.4243-1.543c-.2392.5819-.3941,1.3038-.5009,2.0411l4.2156,1.5809c-.0553-.6639-.1429-1.3889-.2904-2.0791Z"/>
  <path class="cls-28" d="M92.7035,126.1006l-4.2156-1.5809c-.0345.2372-.0635.476-.0876.7123l4.3513,1.6136c-.0123-.237-.026-.4806-.0482-.745Z"/>
  <path class="cls-13" d="M92.7517,126.8456l-4.3513-1.6136c-.0172.1672-.0307.3316-.0432.4949l4.4148,1.601c-.0055-.1537-.0109-.3081-.0203-.4823Z"/>
  <path class="cls-13" d="M85.6685,122.5585l-2.6401-1.0094c-.0692.0887-.118.2187-.1787.3243l2.973,1.1704c-.0504-.1635-.0947-.3343-.1541-.4853Z"/>
  <path class="cls-13" d="M86.0317,123.8592l-3.4758-1.3084c-.2061.5694-.3443,1.2443-.4412,1.927l4.2378,1.775c-.0536-.7411-.1483-1.591-.3208-2.3935Z"/>
  <g>
    <g>
      <path class="cls-10" d="M77.8457,128.2329s-3.2016-14.4055-15.6499-17.2082c0,0,3.6033,2.1574.3758,6.3666,0,0,4.5905,2.4612,1.5819,5.6361,0,0,3.1673,2.1819.8882,5.084l12.804.1215Z"/>
      <path class="cls-21" d="M77.4848,128.0953c-3.0461-6.0538-9.0638-10.4796-15.9225-10.8542.0001-.0001.0004-.0463.0004-.0463,6.7361.171,13.8393,4.3565,15.9221,10.9005h0Z"/>
      <path class="cls-21" d="M62.7917,123.1039c5.1405-.9598,11.1835.538,14.294,4.9933,0,0-.0353.0298-.0353.0298-3.688-3.8011-9.0807-5.69-14.2588-5.0231h0Z"/>
    </g>
    <path class="cls-21" d="M77.8307,128.2025c-5.2613.2222-10.5213.1371-15.7721-.2638,5.2613-.225,10.5211-.1342,15.7721.2638h0Z"/>
    <path class="cls-21" d="M60.6928,110.5036c8.4703,1.9425,15.9148,8.8721,17.1213,17.6666.0001,0-.0452.0092-.0452.0092-2.1376-8.6469-8.5558-15.3166-17.0762-17.6758h0Z"/>
  </g>
  <path class="cls-15" d="M96.2306,116.5643l-18.5119-.2254,1.1975.5998,17.2078.2607.1238-.6188c-.0057-.0056-.0114-.0108-.0172-.0163Z"/>
  <path class="cls-17" d="M96.2478,116.5806l-.1238.6188h0l11.6021,11.0034.8487-.0125c-3.423-3.5631-7.7548-7.1937-12.327-11.6098Z"/>
  <path class="cls-20" d="M139.6773,129.0073s-12.1747,12.0281-19.8975,14.7812c0,0-22.5022.9784-31.0764-.4711l-10.4261-13.4884"/>
  <path class="cls-26" d="M78.2774,129.829l-5.8264-.345-1.3512-1.3512,37.475.0577,39.714-.672-1.7695,1.1707-6.842.3182c-19.9043.688-40.3009,1.0133-61.3999.8217Z"/>
  <path class="cls-26" d="M78.2774,129.829c17.4321-.3483,43.7315-.5714,61.4-.8217-20.4458,1.0649-40.9331,1.1772-61.4.8217h0Z"/>
  <path class="cls-26" d="M81.2305,132.6271c17.4757.1729,36.4048.0082,53.8768-.3181-17.9358,1.075-35.9307,1.2451-53.8768.3181h0Z"/>
  <path class="cls-26" d="M84.6869,137.3252c14.9195.2673,30.3925-.1386,45.2677-.3202-15.0701.944-30.1902,1.329-45.2677.3202h0Z"/>
  <path class="cls-26" d="M87.2331,140.7882c5.5957.0505,13.4044.2633,18.9124.1707,6.3011-.071,12.6105-.3816,18.9175-.301-12.5965.8545-25.2357,1.2549-37.8298.1303h0Z"/>
  <path class="cls-11" d="M96.8478,121.0119c-.7152.0782-1.0568.7092-1.2666,1.3014-.6052,1.9203-.6344,3.9353-.9254,5.9469-.3675-1.7895-.4607-7.3659,2.192-7.2483h0Z"/>
  <path class="cls-11" d="M90.4783,121.1835c-.7152.0782-1.0568.7092-1.2666,1.3014-.6049,1.9203-.6344,3.9353-.9254,5.9468-.3674-1.7892-.4605-7.3659,2.192-7.2482h0Z"/>
  <path class="cls-11" d="M84.1069,120.9968c-.7152.0782-1.0566.7092-1.2665,1.3014-.6052,1.9203-.6344,3.9353-.9254,5.9469-.3674-1.7895-.4608-7.3657,2.1919-7.2483h0Z"/>
  <path class="cls-16" d="M79.0223,134.554c.016,1.425-.3601,2.5845-.3601,2.5845,0,0-.4021-1.1508-.4181-2.5757-.0231-2.0527.7527-2.3679.7527-2.3679,0,0,.0147,1.4028.0255,2.3592Z"/>
  <path class="cls-16" d="M78.9738,140.11c.016-1.425-.3601-2.5845-.3601-2.5845,0,0-.4021,1.1508-.4181,2.5757-.0231,2.0527.7527,2.3679.7527,2.3679,0,0,.0147-1.4028.0255-2.3592Z"/>
  <path class="cls-20" d="M78.8635,136.5313c-.4834,0-.8754.392-.8754.8754s.392.8754.8754.8754c.0392,0,.0729-.0173.1107-.0223v-1.7061c-.0378-.005-.0715-.0223-.1107-.0223Z"/>
  <path class="cls-31" d="M141.8339,112.7473c.5477.2739,1.278,1.6431.1826,1.4605s-2.0082.4564-1.5518.7303.639.7303.639.7303"/>
</svg>